<?xml version="1.0" encoding="utf-8"?>
<!-- Generator: Adobe Illustrator 19.0.0, SVG Export Plug-In . SVG Version: 6.00 Build 0)  -->
<svg version="1.1" id="ZK_WALLET_-_LOGO_ICON" xmlns="http://www.w3.org/2000/svg" xmlns:xlink="http://www.w3.org/1999/xlink"
	 x="0px" y="0px" viewBox="0 0 1500 1250" style="enable-background:new 0 0 1500 1250;" xml:space="preserve">
<style type="text/css">
	.st0{fill:#8B57DD;}
	.st1{fill:#605F5B;}
	.st2{fill:#F1B926;}
	.st3{fill:#FAD240;}
	.st4{fill:#FEDE4D;}
	.st5{fill:#686863;}
	.st6{fill:#AD78E4;}
	.st7{fill:#804CDB;}
	.st8{fill:#575552;}
	.st9{fill:#EDAD19;}
	.st10{fill:#F6C633;}
	.st11{fill:#9762E0;}
	.st12{fill:#A26DE2;}
</style>
<g id="ZK_WALLET_-_LOGO_ICON_1_">
	<polygon id="XMLID_2116_" class="st0" points="657.5,1030.5 361.5,1030.5 361.5,1030.5 398.5,983.5 509.5,842.5 509.5,842.5 
		546.5,889.5 583.5,936.5 584.5,937.8 	"/>
	<polygon id="XMLID_2115_" class="st1" points="657.2,649.5 608.3,713.5 546.5,794.2 536.3,807.5 509.5,842.5 482.7,807.5 
		410.6,713.5 398.5,697.8 361.3,649.5 398.5,649.8 399.4,649.9 509.5,649.5 	"/>
	<polygon id="XMLID_2114_" class="st2" points="1138.5,219.5 990.5,407.5 916.5,313.5 915.5,312.2 842.5,219.5 	"/>
	<polygon id="XMLID_2113_" class="st3" points="842.4,219.5 805.5,267.7 770.5,313.5 698.5,407.5 694.5,402.4 657.5,355.4 
		624.5,313.5 621.4,309.6 550.5,219.5 	"/>
	<polygon id="XMLID_2112_" class="st4" points="698.5,407.5 546.5,407.5 398.5,219.5 550.5,219.5 621.4,309.6 624.5,313.5 
		657.5,355.4 694.5,402.4 	"/>
	<polygon id="XMLID_2111_" class="st5" points="1138.8,600.5 1138.5,600.8 1124.2,619.5 1101.5,649.2 1052.3,713.5 756.3,713.5 
		771.6,693.4 803.4,651.9 805.5,649.2 828.2,619.5 842.5,600.8 842.8,600.5 	"/>
	<polygon id="XMLID_2110_" class="st5" points="752.2,525.5 728.4,556.5 728.4,556.6 696.6,598.1 694.5,600.8 680.2,619.5 
		657.5,649.2 657.2,649.5 509.5,649.5 399.4,649.9 398.5,649.8 361.3,649.5 361.5,649.2 384.2,619.5 398.5,600.8 456.2,525.5 	"/>
	<polygon id="XMLID_2109_" class="st6" points="1101.5,1030.5 953.5,1030.5 880.5,937.8 879.5,936.5 805.5,842.5 953.5,842.5 	"/>
	<polygon id="XMLID_2108_" class="st7" points="509.5,842.5 398.5,983.5 361.5,1030.5 287.5,936.5 213.5,842.5 	"/>
	<polygon id="XMLID_2107_" class="st8" points="509.5,842.5 509.5,842.5 213.5,842.5 240.3,807.5 250.5,794.2 312.3,713.5 
		361.3,649.5 398.5,697.8 410.6,713.5 482.7,807.5 	"/>
	<polygon id="XMLID_2106_" class="st9" points="1286.5,407.5 1286.5,407.5 990.5,407.5 1138.5,219.5 1138.5,219.5 1212.5,313.5 
		1249.5,360.5 	"/>
	<polygon id="XMLID_2105_" class="st1" points="1138.8,600.5 842.8,600.5 900.2,525.5 953.5,455.8 990.5,407.5 1080.7,525.5 
		1101.5,552.7 	"/>
	<polygon id="XMLID_2104_" class="st10" points="990.5,407.5 698.5,407.5 770.5,313.5 805.5,267.7 842.4,219.5 842.5,219.5 
		915.5,312.2 916.5,313.5 	"/>
	<polygon id="XMLID_2103_" class="st8" points="1286.5,407.5 1249.5,455.8 1196.2,525.5 1138.8,600.5 1101.5,552.7 1080.7,525.5 
		990.5,407.5 	"/>
	<polygon id="XMLID_2102_" class="st11" points="805.5,842.5 729.5,936.5 694.5,982.2 657.5,1030.5 584.5,937.8 583.5,936.5 
		546.5,889.5 509.5,842.5 	"/>
	<polygon id="XMLID_2101_" class="st12" points="953.5,1030.5 657.5,1030.5 694.5,982.2 729.5,936.5 805.5,842.5 879.5,936.5 
		880.5,937.8 	"/>
</g>
</svg>
